<svg width="20" height="20" viewBox="0 0 20 20" fill="none" xmlns="http://www.w3.org/2000/svg">
<path fill-rule="evenodd" clip-rule="evenodd" d="M3.39936 5.44303C3.52957 5.01622 3.92645 4.70573 4.39586 4.70573H16.0625C16.5319 4.70573 16.9288 5.01622 17.059 5.44303L10.2292 9.99624L3.39936 5.44303ZM2.10422 5.73595C2.1041 5.74262 2.1041 5.74929 2.10419 5.75595V14.0807C2.10419 15.3464 3.13021 16.3724 4.39586 16.3724H16.0625C17.3282 16.3724 18.3542 15.3464 18.3542 14.0807V5.75587M17.1042 6.91522V14.0807C17.1042 14.656 16.6378 15.1224 16.0625 15.1224H4.39586C3.82056 15.1224 3.35419 14.656 3.35419 14.0807V6.91522L9.8825 11.2674C10.0924 11.4074 10.3659 11.4074 10.5759 11.2674L17.1042 6.91522ZM18.3542 5.73604C18.348 4.47561 17.3244 3.45573 16.0625 3.45573H4.39586C3.13402 3.45573 2.11038 4.47557 2.10422 5.73595" fill="#5F6980"/>
</svg>
