<svg width="15" height="15" viewBox="0 0 15 15" fill="none" xmlns="http://www.w3.org/2000/svg">
<path fill-rule="evenodd" clip-rule="evenodd" d="M11.3987 4.39799C11.6184 4.17832 11.6184 3.82217 11.3987 3.6025C11.1791 3.38283 10.8229 3.38283 10.6032 3.6025L7.50098 6.70475L4.39872 3.6025C4.17905 3.38283 3.8229 3.38283 3.60323 3.6025C3.38356 3.82217 3.38356 4.17832 3.60323 4.39799L6.70548 7.50024L3.60323 10.6025C3.38356 10.8222 3.38356 11.1783 3.60323 11.398C3.8229 11.6177 4.17905 11.6177 4.39872 11.398L7.50098 8.29574L10.6032 11.398C10.8229 11.6177 11.1791 11.6177 11.3987 11.398C11.6184 11.1783 11.6184 10.8222 11.3987 10.6025L8.29647 7.50024L11.3987 4.39799Z" fill="white"/>
</svg>
