<svg width="179" height="179" viewBox="0 0 179 179" fill="none" xmlns="http://www.w3.org/2000/svg">
<path d="M179 89.5C179 138.929 138.929 179 89.5 179C40.0705 179 0 138.929 0 89.5C0 40.0705 40.0705 0 89.5 0C138.929 0 179 40.0705 179 89.5ZM17.9 89.5C17.9 129.044 49.9564 161.1 89.5 161.1C129.044 161.1 161.1 129.044 161.1 89.5C161.1 49.9564 129.044 17.9 89.5 17.9C49.9564 17.9 17.9 49.9564 17.9 89.5Z" fill="#FEC102"/>
<path d="M128.89 19.2382C131.307 14.9266 136.793 13.3552 140.842 16.1908C148.537 21.58 155.351 28.1584 161.022 35.6955C168.489 45.622 173.809 56.9942 176.641 69.0886C179.474 81.183 179.759 93.7346 177.476 105.945C175.194 118.155 170.395 129.756 163.384 140.011C156.374 150.265 147.306 158.948 136.757 165.507C126.208 172.066 114.409 176.357 102.111 178.107C89.8134 179.857 77.2859 179.029 65.3259 175.673C56.2446 173.126 47.6416 169.164 39.8267 163.95C35.7149 161.207 35.1878 155.524 38.328 151.707V151.707C41.4681 147.89 47.0836 147.395 51.2626 150.035C57.1088 153.728 63.4727 156.563 70.1607 158.439C79.7287 161.123 89.7507 161.786 99.5889 160.386C109.427 158.985 118.866 155.553 127.305 150.306C135.745 145.059 142.999 138.112 148.607 129.909C154.216 121.705 158.055 112.424 159.881 102.656C161.707 92.8877 161.479 82.8464 159.213 73.1709C156.947 63.4954 152.691 54.3976 146.717 46.4564C142.541 40.9055 137.59 36.0047 132.027 31.8977C128.05 28.9618 126.473 23.5498 128.89 19.2382V19.2382Z" fill="#E2FF32"/>
<path d="M146.457 146.457C149.953 149.953 149.978 155.659 146.152 158.788C130.237 171.802 110.24 179 89.5 179C68.7605 179 48.7631 171.802 32.8482 158.788C29.0216 155.659 29.0474 149.953 32.5425 146.457V146.457C36.0377 142.962 41.6747 143.014 45.5784 146.046C58.0731 155.752 73.5109 161.1 89.5 161.1C105.489 161.1 120.927 155.752 133.422 146.046C137.325 143.014 142.962 142.962 146.457 146.457V146.457Z" fill="#55DBDB"/>
<path d="M89.5 170.05C89.5 174.993 85.4826 179.046 80.5643 178.553C61.9145 176.682 44.2377 168.989 30.1042 156.451C15.9707 143.912 6.22635 127.278 2.14634 108.984C1.07037 104.159 4.61622 99.6877 9.52395 99.0986V99.0986C14.4317 98.5096 18.8323 102.033 20.0285 106.829C23.5075 120.777 31.1268 133.429 41.9834 143.061C52.8399 152.692 66.3098 158.749 80.5728 160.541C85.4772 161.158 89.5 165.107 89.5 170.05V170.05Z" fill="#57CC78"/>
</svg>
