<svg width="14" height="14" viewBox="0 0 14 14" fill="none" xmlns="http://www.w3.org/2000/svg">
<path fill-rule="evenodd" clip-rule="evenodd" d="M10.8987 3.89799C11.1184 3.67832 11.1184 3.32217 10.8987 3.1025C10.6791 2.88283 10.3229 2.88283 10.1032 3.1025L7.00098 6.20475L3.89872 3.1025C3.67905 2.88283 3.3229 2.88283 3.10323 3.1025C2.88356 3.32217 2.88356 3.67832 3.10323 3.89799L6.20548 7.00024L3.10323 10.1025C2.88356 10.3222 2.88356 10.6783 3.10323 10.898C3.3229 11.1177 3.67905 11.1177 3.89872 10.898L7.00098 7.79574L10.1032 10.898C10.3229 11.1177 10.6791 11.1177 10.8987 10.898C11.1184 10.6783 11.1184 10.3222 10.8987 10.1025L7.79647 7.00024L10.8987 3.89799Z" fill="white"/>
</svg>
