<svg width="20" height="20" viewBox="0 0 20 20" fill="none" xmlns="http://www.w3.org/2000/svg">
<path fill-rule="evenodd" clip-rule="evenodd" d="M4.18488 4.12369C4.18488 4.00863 4.27815 3.91536 4.39321 3.91536H7.72654C7.8416 3.91536 7.93488 4.00863 7.93488 4.12369V7.45703C7.93488 7.57209 7.8416 7.66536 7.72654 7.66536H4.39321C4.27815 7.66536 4.18488 7.57209 4.18488 7.45703V4.12369ZM4.39321 2.66536C3.58779 2.66536 2.93488 3.31828 2.93488 4.12369V7.45703C2.93488 8.26244 3.58779 8.91536 4.39321 8.91536H7.72654C8.53196 8.91536 9.18488 8.26244 9.18488 7.45703V4.12369C9.18488 3.31828 8.53196 2.66536 7.72654 2.66536H4.39321ZM12.5182 4.12369C12.5182 4.00863 12.6115 3.91536 12.7265 3.91536H16.0599C16.1749 3.91536 16.2682 4.00863 16.2682 4.12369V7.45703C16.2682 7.57209 16.1749 7.66536 16.0599 7.66536H12.7265C12.6115 7.66536 12.5182 7.57209 12.5182 7.45703V4.12369ZM12.7265 2.66536C11.9211 2.66536 11.2682 3.31828 11.2682 4.12369V7.45703C11.2682 8.26244 11.9211 8.91536 12.7265 8.91536H16.0599C16.8653 8.91536 17.5182 8.26244 17.5182 7.45703V4.12369C17.5182 3.31828 16.8653 2.66536 16.0599 2.66536H12.7265ZM4.39321 12.2487C4.27815 12.2487 4.18488 12.342 4.18488 12.457V15.7904C4.18488 15.9054 4.27815 15.9987 4.39321 15.9987H7.72654C7.8416 15.9987 7.93488 15.9054 7.93488 15.7904V12.457C7.93488 12.342 7.8416 12.2487 7.72654 12.2487H4.39321ZM2.93488 12.457C2.93488 11.6516 3.58779 10.9987 4.39321 10.9987H7.72654C8.53196 10.9987 9.18488 11.6516 9.18488 12.457V15.7904C9.18488 16.5958 8.53196 17.2487 7.72654 17.2487H4.39321C3.58779 17.2487 2.93488 16.5958 2.93488 15.7904V12.457ZM12.5182 12.457C12.5182 12.342 12.6115 12.2487 12.7265 12.2487H16.0599C16.1749 12.2487 16.2682 12.342 16.2682 12.457V15.7904C16.2682 15.9054 16.1749 15.9987 16.0599 15.9987H12.7265C12.6115 15.9987 12.5182 15.9054 12.5182 15.7904V12.457ZM12.7265 10.9987C11.9211 10.9987 11.2682 11.6516 11.2682 12.457V15.7904C11.2682 16.5958 11.9211 17.2487 12.7265 17.2487H16.0599C16.8653 17.2487 17.5182 16.5958 17.5182 15.7904V12.457C17.5182 11.6516 16.8653 10.9987 16.0599 10.9987H12.7265Z" fill="#5F6980"/>
</svg>
