<svg width="20" height="20" viewBox="0 0 20 20" fill="none" xmlns="http://www.w3.org/2000/svg">
<path fill-rule="evenodd" clip-rule="evenodd" d="M6.94529 6.667C6.94529 5.17123 8.15785 3.95866 9.65363 3.95866C11.1494 3.95866 12.362 5.17123 12.362 6.667C12.362 8.16277 11.1494 9.37533 9.65363 9.37533C8.15785 9.37533 6.94529 8.16277 6.94529 6.667ZM9.65363 2.70866C7.4675 2.70866 5.69529 4.48087 5.69529 6.667C5.69529 8.85312 7.4675 10.6253 9.65363 10.6253C11.8398 10.6253 13.612 8.85312 13.612 6.667C13.612 4.48087 11.8398 2.70866 9.65363 2.70866ZM6.07188 13.8323C6.57979 13.3244 7.26866 13.0391 7.98696 13.0391H11.3203C12.0386 13.0391 12.7275 13.3244 13.2354 13.8323C13.7433 14.3402 14.0286 15.0291 14.0286 15.7474V17.4141C14.0286 17.7592 14.3084 18.0391 14.6536 18.0391C14.9988 18.0391 15.2786 17.7592 15.2786 17.4141V15.7474C15.2786 14.6976 14.8616 13.6908 14.1193 12.9484C13.3769 12.2061 12.3701 11.7891 11.3203 11.7891H7.98696C6.93714 11.7891 5.93033 12.2061 5.18799 12.9484C4.44566 13.6908 4.02863 14.6976 4.02863 15.7474V17.4141C4.02863 17.7592 4.30845 18.0391 4.65363 18.0391C4.9988 18.0391 5.27863 17.7592 5.27863 17.4141V15.7474C5.27863 15.0291 5.56397 14.3402 6.07188 13.8323Z" fill="#5F6980"/>
</svg>
