<svg width="15" height="14" viewBox="0 0 15 14" fill="none" xmlns="http://www.w3.org/2000/svg">
<path fill-rule="evenodd" clip-rule="evenodd" d="M11.3987 3.89799C11.6184 3.67832 11.6184 3.32217 11.3987 3.1025C11.1791 2.88283 10.8229 2.88283 10.6032 3.1025L7.50098 6.20475L4.39872 3.1025C4.17905 2.88283 3.8229 2.88283 3.60323 3.1025C3.38356 3.32217 3.38356 3.67832 3.60323 3.89799L6.70548 7.00024L3.60323 10.1025C3.38356 10.3222 3.38356 10.6783 3.60323 10.898C3.8229 11.1177 4.17905 11.1177 4.39872 10.898L7.50098 7.79574L10.6032 10.898C10.8229 11.1177 11.1791 11.1177 11.3987 10.898C11.6184 10.6783 11.6184 10.3222 11.3987 10.1025L8.29647 7.00024L11.3987 3.89799Z" fill="white"/>
</svg>
